# xmcd CD database file
#
# Track frame offsets:
#	150
#	19350
#	34725
#
# Disc length: 570 seconds
#
# Revision: 1
# Processed by: cddbd v1.5.2PL0 Copyright (c) Steve Scherf et al.
# Submitted via: CDex 1.70beta2
#
DISCID=1e023803
DTITLE=Jimmy Nail - Crocodile Shoes
DYEAR=0
DGENRE=
TTITLE0=Crocodile Shoes
TTITLE1=Calling Out Your Name (Jed's Demo)
TTITLE2=Once Upon a Time (Jed's Demo)
EXTD=YEAR: 0
EXTT0=
EXTT1=
EXTT2=
PLAYORDER=
